<svg height="300" width="300" viewBox="0 0 100 100" fill="#4e4e4e" xmlns="http://www.w3.org/2000/svg" version="1.0"><path d="M93.3 32.2c-.6 0-1.1.5-1.1 1.1v4c0 .6.5 1.1 1.1 1.1.6 0 1.1-.5 1.1-1.1v-4c0-.6-.5-1.1-1.1-1.1zm0-8.1c-.6 0-1.1.5-1.1 1.1v4c0 .6.5 1.1 1.1 1.1.6 0 1.1-.5 1.1-1.1v-4c0-.6-.5-1.1-1.1-1.1zm-1.5-7.5c-.5-.3-1.2-.1-1.5.4-.3.5-.1 1.2.4 1.5l.5.3-.5.2c-.5.3-.7 1-.4 1.5.2.3.6.5.9.5.2 0 .4-.1.5-.1l.5-.3v.6c0 .6.5 1.1 1.1 1.1.6 0 1.1-.5 1.1-1.1v-3l-2.6-1.6zm-10.5-6.1l-3.5-2c-.5-.3-1.2-.1-1.5.4-.3.5-.1 1.2.4 1.5l3.5 2c.2.1.3.1.5.1.4 0 .7-.2.9-.5.3-.5.2-1.2-.3-1.5zm2.4 3.9l3.5 2c.2.1.3.1.5.1.4 0 .7-.2.9-.5.3-.5.1-1.2-.4-1.5l-3.5-2c-.5-.3-1.2-.1-1.5.4-.2.6 0 1.2.5 1.5zm-9.4-7.9L71.7 5 69 6.5c-.5.3-.7 1-.4 1.5.3.5.9.7 1.5.4l1.6-.9 1.6.9c.2.1.3.1.5.1.4 0 .7-.2.9-.5.3-.5.1-1.2-.4-1.5zM55.6 16.6c.2 0 .4-.1.5-.1l3.5-2c.5-.3.7-1 .4-1.5-.3-.5-1-.7-1.5-.4l-3.5 2c-.5.3-.7 1-.4 1.5.3.3.6.5 1 .5zm7-4c.2 0 .4-.1.5-.1l3.5-2c.5-.3.7-1 .4-1.5-.3-.5-1-.7-1.5-.4l-3.5 2c-.5.3-.7 1-.4 1.5.2.3.6.5 1 .5zm17.6 37.5l-3.5 2c-.5.3-.7 1-.4 1.5.2.3.6.5.9.5.2 0 .4-.1.5-.1l3.5-2c.5-.3.7-1 .4-1.5-.2-.6-.9-.7-1.4-.4zm7-4.1l-3.5 2c-.5.3-.7 1-.4 1.5.2.3.6.5.9.5.2 0 .4-.1.5-.1l3.5-2c.5-.3.7-1 .4-1.5-.2-.5-.9-.7-1.4-.4zm-3-21c.2 0 .4-.1.5-.1l3.5-2c.5-.3.7-1 .4-1.5-.3-.5-1-.7-1.5-.4l-3.5 2c-.5.3-.7 1-.4 1.5.3.4.7.5 1 .5zm-4 .1l-3.5 2c-.5.3-.7 1-.4 1.5.2.3.6.5.9.5.2 0 .4-.1.5-.1l3.5-2c.5-.3.7-1 .4-1.5-.2-.5-.9-.7-1.4-.4zm-7 4l-1.5.9-1.6-.9c-.5-.3-1.2-.1-1.5.4-.3.5-.1 1.2.4 1.5l1.6.9v1.8c0 .6.5 1.1 1.1 1.1.6 0 1.1-.5 1.1-1.1v-1.8l1.6-.9c.5-.3.7-1 .4-1.5-.4-.5-1.1-.7-1.6-.4zM62 26.9l3.5 2c.2.1.3.1.5.1.4 0 .7-.2.9-.5.3-.5.1-1.2-.4-1.5L63 25c-.5-.3-1.2-.1-1.5.4-.2.6 0 1.2.5 1.5zm-7-4l3.5 2c.2.1.3.1.5.1.4 0 .7-.2.9-.5.3-.5.1-1.2-.4-1.5L56 21c-.5-.3-1.2-.1-1.5.4-.1.5 0 1.2.5 1.5zm16.7 19.9c.6 0 1.1-.5 1.1-1.1v-4c0-.6-.5-1.1-1.1-1.1s-1.1.5-1.1 1.1v4c0 .6.5 1.1 1.1 1.1zm-1.1 7c0 .6.5 1.1 1.1 1.1s1.1-.5 1.1-1.1v-4c0-.6-.5-1.1-1.1-1.1s-1.1.5-1.1 1.1v4zm23.8-8.5v3l-2.6 1.5c-.2.2-.4.2-.6.2-.4 0-.7-.2-.9-.5-.3-.5-.1-1.2.4-1.5l1.6-.9v-1.8c0-.6.5-1.1 1.1-1.1.5.1 1 .6 1 1.1z"/><path d="M74.7 54.5c.3.5.1 1.2-.4 1.5l-1.6.9v25L50 95 27.3 81.9v-25L5.6 44.4V18.2L28.3 5.1 50 17.5l1.6-.9c.5-.3 1.2-.1 1.5.4.3.5.1 1.2-.4 1.5l-.5.3.5.3c.5.3.7 1 .4 1.5-.2.3-.6.5-.9.5-.2 0-.4-.1-.5-.1l-.5-.3V43.1l1.6.9.1.1 3.3 1.9c.1 0 .1 0 .1.1l3.5 2 .1.1 3.3 1.9c.1 0 .1 0 .1.1l3.5 2 .1.1 3.3 1.9c.1 0 .1 0 .1.1l.5.3V54c0-.6.5-1.1 1.1-1.1.6 0 1.1.5 1.1 1.1v.6l.5-.3c.2-.5.9-.3 1.2.2zm-5.2 1.8L50 45 30.5 56.3 50 67.5l19.5-11.2zM48.9 20.6L29.4 31.9v22.5l19.5-11.3V20.6zM28.3 7.5L8.8 18.7 28.3 30l19.5-11.3L28.3 7.5zM7.8 43.1l19.5 11.3V31.9L7.8 20.6v22.5zm21.6 37.5l19.5 11.3V69.4L29.4 58.1v22.5zm41.2 0V58.1L51.1 69.4v22.5l19.5-11.3z" fill="#2b2b2b"/></svg>